# xmcd
#
# Track frame offsets: 
#        150
#        11974
#        25334
#        35934
#        50869
#        67246
#        70278
#        83907
#        97425
#        110628
#        127170
#        141714
#        148717
#        162034
#        175629
#        189446
#        194394
#        214831
#        228639
#        242739
#        256793
#        271509
#        283807
#        298008
#        315897
#        329236
#
# Disc length: 4570 seconds
#
# Revision: 0
# Processed by: cddbd v1.5.2PL0 Copyright (c) Steve Scherf et al.
# Submitted via: ExactAudioCopy v0.99pb4
#
DISCID=ac11d81a
DTITLE=Huddie `Leadbelly' Ledbetter - The Definitive Leadbelly: 60th A
DTITLE=nniversary Edition - CD2
DYEAR=2009
DGENRE=Blues
TTITLE0=Rock Island Line
TTITLE1=Roberta
TTITLE2=House Of The Rising Sun
TTITLE3=Nobody Knows You When You're Down And Out
TTITLE4=Fannin' Street
TTITLE5=Yellow Gal
TTITLE6=C.C. Rider
TTITLE7=Alabama Bound
TTITLE8=Sweet Mary
TTITLE9=Going Back To Mary
TTITLE10=New Orleans
TTITLE11=Ha, Ha, This-A-Way
TTITLE12=Daddy, I'm Coming Back To You
TTITLE13=Pick A Bale Of Cotton
TTITLE14=Midnight Special
TTITLE15=Sukey Jump
TTITLE16=How Long
TTITLE17=Leaving Blues
TTITLE18=T.B. Blues
TTITLE19=Red Cross Store
TTITLE20=Sail On, Little Girl, Sail On
TTITLE21=Bull Cow
TTITLE22=Alberta
TTITLE23=Digging My Potatoes
TTITLE24=You Can't Lose Me Cholly
TTITLE25=Grey Goose
EXTD=
EXTT0=
EXTT1=
EXTT2=
EXTT3=
EXTT4=
EXTT5=
EXTT6=
EXTT7=
EXTT8=
EXTT9=
EXTT10=
EXTT11=
EXTT12=
EXTT13=
EXTT14=
EXTT15=
EXTT16=
EXTT17=
EXTT18=
EXTT19=
EXTT20=
EXTT21=
EXTT22=
EXTT23=
EXTT24=
EXTT25=
PLAYORDER=
